<svg width="1440" height="6" viewBox="0 0 1440 6" fill="none" xmlns="http://www.w3.org/2000/svg">
<path fill-rule="evenodd" clip-rule="evenodd" d="M0 1.44379L3.82627 2.62726L11.2457 2.76091L18.5789 2.8824L25.8689 2.85808L33.1805 2.6637L40.4921 2.65158L47.7822 2.73659L55.0722 3.22256L62.4054 3.16179L69.717 3.07674L77.0286 2.89452L84.3402 2.55437L91.6303 2.84592L98.9419 2.60297L106.21 3.48982L113.565 2.73659L120.855 3.47766L128.145 3.56271L135.457 3.53838L142.768 3.58699L150.037 3.9393L157.37 3.56271L164.703 3.67204L172.015 3.78136L179.305 3.42905L186.573 2.56654L193.885 2.43288L201.218 3.12534L208.487 2.34787L215.82 2.48148L223.131 3.16179L230.443 2.72446L237.733 2.99173L245.023 2.09273L252.335 2.8824L259.625 2.68803L266.936 2.16562L274.248 2.05628L281.559 2.16562L288.871 2.01984L296.161 2.25066L303.451 2.18993L310.741 2.65158L318.096 1.99556L325.386 2.4572L332.719 2.20206L340.031 2.21422L347.256 3.45334L354.589 3.11319L361.879 3.01601L369.212 3.34401L376.524 3.31973L383.836 3.27112L391.104 2.26283L398.416 2.4086L405.727 2.89452L413.017 2.03201L420.307 2.95529L427.641 2.85808L434.952 2.38432L442.242 2.67587L449.554 2.39644L456.844 2.87024L464.134 2.6637L471.446 3.1375L478.757 3.70848L486.069 3.36832L493.359 2.94313L500.67 2.79736L507.961 3.65987L515.272 3.50195L522.541 2.46932L529.852 2.2385L537.164 2.33571L544.54 2.79736L551.787 2.11705L559.055 1.63109L566.389 1.67969L573.7 2.29927L581.012 1.52175L588.323 2.4086L595.614 2.04416L602.925 1.93479L610.215 1.89835L617.527 2.16562L624.838 2.04416L632.128 1.14516L639.44 1.07227L646.773 2.16562L654.042 1.63109L661.332 1.33954L668.643 0.93866L675.977 1.08443L683.267 1.54607L690.535 2.32355L697.868 1.92267L705.201 1.6068L712.491 1.69185L719.738 2.82164L727.05 3.02818L734.405 2.4086L741.673 3.10107L748.985 3.06462L756.318 2.74875L763.629 2.60297L770.898 3.39261L778.21 2.78519L785.521 3.50195L792.833 3.35617L800.123 2.89452L807.434 3.259L814.724 2.72446L822.015 3.23468L829.348 3.27112L836.638 2.68803L843.949 2.7123L851.261 3.08891L858.573 3.06462L865.841 2.31142L873.153 2.68803L880.443 2.87024L887.754 3.08891L895.087 2.65158L902.399 2.61514L909.711 2.6637L916.979 3.01601L924.269 3.50195L931.581 4.00003L938.892 3.16179L946.204 3.38045L953.494 3.69632L960.806 3.74493L968.096 3.18611L975.407 3.85426L982.697 2.91885H990.009L997.299 2.6637L1004.59 2.39644L1011.92 2.59081L1019.23 3.12534L1026.5 2.38432L1033.84 2.74875L1041.13 2.33571L1048.42 1.70401L1055.75 2.72446L1063.04 2.2385L1070.33 2.26283L1077.62 2.2385L1084.95 2.09273L1092.26 2.20206L1099.55 2.50577L1106.87 1.94695L1114.16 2.74875L1121.45 2.87024L1128.76 1.92267L1136.07 2.74875L1143.38 2.18993L1150.69 1.94695L1157.98 2.27499L1165.29 2.26283L1172.56 1.59464L1179.87 2.61514H1187.19L1194.5 2.32355L1201.81 1.66756L1209.1 2.32355L1216.41 2.48148L1223.7 2.53009L1231.01 1.49747L1238.32 2.17777L1245.59 2.78519L1252.92 2.72446L1260.21 2.91885L1267.53 2.95529L1274.86 2.76091L1282.11 3.39261L1289.42 3.02818L1296.71 2.67587L1304.06 3.06462L1311.4 3.259L1318.62 2.32355L1325.95 2.67587L1333.22 2.16562L1340.56 2.28711L1347.85 1.50963L1355.14 1.25449L1362.47 2.03201L1369.72 0.962944L1377.03 1.0966L1384.36 0.817169L1391.61 2.14133L1398.92 2.28711L1406.27 2.06844L1413.63 1.83762L1420.85 2.74875L1428.23 2.20206L1435.59 3.33189L1440 2.01097V6H0V1.44379Z" fill="#F5F3EA"/>
</svg>
